<svg xmlns="http://www.w3.org/2000/svg" width="500" height="500" viewBox="-170 -220 500 500"><path d="M98.318 21.982H76.275c-7.406 0-13.431-6.025-13.431-13.431V3.174c0-9.284-7.555-16.839-16.842-16.839h-82.834c-9.284 0-16.839 7.555-16.839 16.839v5.377c0 7.406-6.025 13.431-13.431 13.431H-89.15c-17.012 0-30.85 13.84-30.85 30.846v26.366a6.603 6.603 0 0 0 6.605 6.602 6.602 6.602 0 0 0 6.605-6.602V52.828c0-9.727 7.913-17.637 17.64-17.637h22.047c14.691 0 26.64-11.949 26.64-26.64V3.174A3.635 3.635 0 0 1-36.83-.455h82.834a3.632 3.632 0 0 1 3.629 3.629v5.377c0 14.688 11.954 26.64 26.644 26.64h22.046c9.721 0 17.637 7.91 17.637 17.637v121.067c0 9.727-7.916 17.642-17.643 17.642H-89.15c-9.727 0-17.64-7.915-17.64-17.642v-54.577a6.605 6.605 0 1 0-13.21 0v54.577c0 17.011 13.838 30.847 30.85 30.847H98.318c17.013 0 30.853-13.836 30.853-30.847V52.828c0-17.006-13.834-30.846-30.853-30.846z"/><path d="M4.585 50.889c-32.698 0-59.299 26.601-59.299 59.296s26.601 59.296 59.299 59.296 59.3-26.601 59.3-59.296-26.601-59.296-59.3-59.296zm0 105.382c-25.413 0-46.09-20.671-46.09-46.086 0-25.416 20.677-46.094 46.09-46.094 25.414 0 46.09 20.678 46.09 46.094.001 25.415-20.676 46.086-46.09 46.086zM91.691 52.775c-3.894 0-7.058 3.166-7.058 7.046a7.064 7.064 0 0 0 7.058 7.058c3.88 0 7.044-3.166 7.044-7.058 0-3.88-3.164-7.046-7.044-7.046zm83.984-197.516H-25.111a6.607 6.607 0 0 0-6.604 6.608v99.661a6.605 6.605 0 0 0 13.208 0v-93.056h187.58v56.067a6.601 6.601 0 0 0 6.602 6.604 6.607 6.607 0 0 0 6.608-6.604v-62.675a6.61 6.61 0 0 0-6.608-6.605z"/><path d="M147.12-116.708H2.802a6.604 6.604 0 0 0-6.605 6.607v73.389a6.606 6.606 0 0 0 6.605 6.608 6.607 6.607 0 0 0 6.604-6.608v-66.787h131.105v19.817a6.603 6.603 0 0 0 6.608 6.604 6.602 6.602 0 0 0 6.602-6.604V-110.1a6.601 6.601 0 0 0-6.601-6.608z"/><path d="M275.778-13.389L88.526-85.865a6.607 6.607 0 0 0-8.547 3.776L61.558-34.498a6.605 6.605 0 1 0 12.321 4.769l16.035-41.432L264.841-3.454 197.133 171.48l-47.981-18.576a6.61 6.61 0 0 0-8.541 3.777 6.604 6.604 0 0 0 3.775 8.541l54.141 20.965a6.656 6.656 0 0 0 2.382.442 6.594 6.594 0 0 0 6.159-4.22L279.555-4.843a6.614 6.614 0 0 0-3.777-8.546z"/><path d="M242.679 5.935a6.62 6.62 0 0 0-3.657-3.49L104.438-49.647a6.62 6.62 0 0 0-5.131.149 6.625 6.625 0 0 0-3.469 3.767L78.866 1.263a6.604 6.604 0 0 0 12.421 4.489l14.682-40.641 122.127 47.268-36.712 94.842-44.133-17.081a6.6 6.6 0 0 0-8.543 3.774 6.612 6.612 0 0 0 3.777 8.549l50.286 19.467c3.215 1.242 7.238-.404 8.548-3.775L242.796 10.99a6.628 6.628 0 0 0-.117-5.055z"/></svg>